<svg xmlns="http://www.w3.org/2000/svg" xmlns:xlink="http://www.w3.org/1999/xlink" width="80.832" height="81.136" viewBox="0 0 80.832 81.136">
  <defs>
    <clipPath id="clip-path">
      <rect id="Rectángulo_401125" data-name="Rectángulo 401125" width="80.832" height="81.136" fill="none"/>
    </clipPath>
  </defs>
  <g id="Grupo_1099467" data-name="Grupo 1099467" clip-path="url(#clip-path)">
    <path id="Trazado_873452" data-name="Trazado 873452" d="M7.129,58.863,58.371,68.3a3.65,3.65,0,0,1,1.5.649L73.818,79.173a3.662,3.662,0,0,0,5.83-2.952V20.557a3.663,3.663,0,0,0-3-3.6L8.454,4.4a3.663,3.663,0,0,0-4.325,3.6V55.261a3.663,3.663,0,0,0,3,3.6" transform="translate(-4.129 1.245)" fill="#355855"/>
    <path id="Trazado_873453" data-name="Trazado 873453" d="M3,54.521l51.242,9.432a3.65,3.65,0,0,1,1.5.649L69.689,74.831a3.662,3.662,0,0,0,5.83-2.952V16.215a3.663,3.663,0,0,0-3-3.6L4.325.062A3.662,3.662,0,0,0,0,3.664V50.919a3.663,3.663,0,0,0,3,3.6" transform="translate(5.314 0)" fill="#fff"/>
  </g>
</svg>
